<mxfile host="app.diagrams.net" modified="2021-05-11T19:50:32.779Z" agent="5.0 (Macintosh; Intel Mac OS X 10_15_7) AppleWebKit/537.36 (KHTML, like Gecko) Chrome/90.0.4430.212 Safari/537.36" etag="1NcmF-zZZaoJuZfR8nlF" version="14.6.12" type="github">
  <diagram id="DI82Bb3bqDMcabK5-wRD" name="Page-1">
    <mxGraphModel dx="842" dy="826" grid="1" gridSize="10" guides="1" tooltips="1" connect="1" arrows="1" fold="1" page="1" pageScale="1" pageWidth="850" pageHeight="1100" background="#FFFFFF" math="0" shadow="0">
      <root>
        <mxCell id="0" />
        <mxCell id="1" parent="0" />
        <mxCell id="eNTcGy9PJzzU8kZrzDq5-6" value="selecao" style="swimlane;childLayout=stackLayout;horizontal=1;startSize=30;horizontalStack=0;rounded=1;fontSize=14;fontStyle=1;strokeWidth=2;resizeParent=0;resizeLast=1;shadow=0;align=center;sketch=0;labelBackgroundColor=none;labelBorderColor=none;strokeColor=#6c8ebf;gradientColor=#ffffff;fillColor=#3399FF;" parent="1" vertex="1">
          <mxGeometry x="505" y="250" width="250" height="160" as="geometry" />
        </mxCell>
        <mxCell id="eNTcGy9PJzzU8kZrzDq5-7" value="nome_selecao(caracter);&#xa;cep(caracter);&#xa;quant_equipe(decimal);&#xa;moeda_local(decimal);&#xa;cor_selecao(caracter);&#xa;pontuacao_jogo(decimal);&#xa;pontuacao_total(decimal);&#xa;" style="align=left;spacingLeft=4;fontSize=14;verticalAlign=top;resizable=0;rotatable=0;part=1;" parent="eNTcGy9PJzzU8kZrzDq5-6" vertex="1">
          <mxGeometry y="30" width="250" height="130" as="geometry" />
        </mxCell>
        <mxCell id="eNTcGy9PJzzU8kZrzDq5-8" value="jogadores" style="swimlane;childLayout=stackLayout;horizontal=1;startSize=30;horizontalStack=0;rounded=1;fontSize=14;fontStyle=1;strokeWidth=2;resizeParent=0;resizeLast=1;shadow=0;align=center;sketch=0;labelBackgroundColor=none;labelBorderColor=none;strokeColor=#6c8ebf;gradientColor=#ffffff;fillColor=#3399FF;" parent="1" vertex="1">
          <mxGeometry x="510" y="20" width="240" height="170" as="geometry" />
        </mxCell>
        <mxCell id="eNTcGy9PJzzU8kZrzDq5-9" value="nome_jogador(caracter);&#xa;idade(decimal);&#xa;numero_camiseta(decimal);&#xa;exame_medico(caracter);&#xa;quant_cartao_vermelho(decimal);&#xa;quant_cartao_amarelo(decimal);&#xa;quant_expulsao(decimal);" style="align=left;spacingLeft=4;fontSize=14;verticalAlign=top;resizable=0;rotatable=0;part=1;" parent="eNTcGy9PJzzU8kZrzDq5-8" vertex="1">
          <mxGeometry y="30" width="240" height="140" as="geometry" />
        </mxCell>
        <mxCell id="eNTcGy9PJzzU8kZrzDq5-11" value="partidas" style="swimlane;childLayout=stackLayout;horizontal=1;startSize=30;horizontalStack=0;rounded=1;fontSize=14;fontStyle=1;strokeWidth=2;resizeParent=0;resizeLast=1;shadow=0;align=center;sketch=0;labelBackgroundColor=none;labelBorderColor=none;strokeColor=#6c8ebf;gradientColor=#ffffff;fillColor=#3399FF;" parent="1" vertex="1">
          <mxGeometry x="40" y="480" width="270" height="200" as="geometry" />
        </mxCell>
        <mxCell id="eNTcGy9PJzzU8kZrzDq5-12" value="nome_jogador(caracter);&#xa;sobre_nome_jogador(caracter);&#xa;idade(decimal);&#xa;numero_camiseta(decimal);&#xa;exame_medico(caracter);&#xa;quant_cartao_vermelho(decimal);&#xa;quant_cartao_amarelo(decimal);&#xa;quant_expulsao(decimal);" style="align=left;spacingLeft=4;fontSize=16;verticalAlign=middle;resizable=0;rotatable=0;part=1;" parent="eNTcGy9PJzzU8kZrzDq5-11" vertex="1">
          <mxGeometry y="30" width="270" height="170" as="geometry" />
        </mxCell>
        <mxCell id="eNTcGy9PJzzU8kZrzDq5-13" value="arbitragem" style="swimlane;childLayout=stackLayout;horizontal=1;startSize=30;horizontalStack=0;rounded=1;fontSize=14;fontStyle=1;strokeWidth=2;resizeParent=0;resizeLast=1;shadow=0;align=center;sketch=0;labelBackgroundColor=none;labelBorderColor=none;strokeColor=#6c8ebf;gradientColor=#ffffff;fillColor=#3399FF;" parent="1" vertex="1">
          <mxGeometry x="490" y="470" width="280" height="190" as="geometry" />
        </mxCell>
        <mxCell id="eNTcGy9PJzzU8kZrzDq5-14" value="nome_juiz(caracter);&#xa;sobre_nome_juiz(caracter);&#xa;idade_juiz(decimal);&#xa;pais_juiz(caracter);&#xa;nome_bandeirinha(caracter);&#xa;sobre_nome_bandeirinha(caracter);&#xa;idade_bandeirinha(decimal);&#xa;pais_bandeirinha(caracter);" style="align=left;spacingLeft=4;fontSize=14;verticalAlign=top;resizable=0;rotatable=0;part=1;" parent="eNTcGy9PJzzU8kZrzDq5-13" vertex="1">
          <mxGeometry y="30" width="280" height="160" as="geometry" />
        </mxCell>
        <mxCell id="eNTcGy9PJzzU8kZrzDq5-15" value="localizacao" style="swimlane;childLayout=stackLayout;horizontal=1;startSize=30;horizontalStack=0;rounded=1;fontSize=14;fontStyle=1;strokeWidth=2;resizeParent=0;resizeLast=1;shadow=0;align=center;sketch=0;labelBackgroundColor=none;labelBorderColor=none;strokeColor=#6c8ebf;gradientColor=#ffffff;fillColor=#3399FF;" parent="1" vertex="1">
          <mxGeometry x="490" y="730" width="280" height="140" as="geometry" />
        </mxCell>
        <mxCell id="eNTcGy9PJzzU8kZrzDq5-16" value="nome_cidade(caracter);&#xa;nome_estado(caracter);&#xa;nome_pais(caracter);&#xa;nome_estadio(caracter);&#xa;nome_rua(caracter);&#xa;numero_estagio(decimal);&#xa;&#xa;" style="align=left;spacingLeft=4;fontSize=14;verticalAlign=top;resizable=0;rotatable=0;part=1;" parent="eNTcGy9PJzzU8kZrzDq5-15" vertex="1">
          <mxGeometry y="30" width="280" height="110" as="geometry" />
        </mxCell>
        <mxCell id="eNTcGy9PJzzU8kZrzDq5-17" value="patrocinadores" style="swimlane;childLayout=stackLayout;horizontal=1;startSize=30;horizontalStack=0;rounded=1;fontSize=14;fontStyle=1;strokeWidth=2;resizeParent=0;resizeLast=1;shadow=0;align=center;sketch=0;labelBackgroundColor=none;labelBorderColor=none;strokeColor=#6c8ebf;gradientColor=#ffffff;fillColor=#3399FF;" parent="1" vertex="1">
          <mxGeometry x="490" y="930" width="280" height="130" as="geometry" />
        </mxCell>
        <mxCell id="eNTcGy9PJzzU8kZrzDq5-18" value="nome_social_patrocinador(caracter);&#xa;nome_razao_patrocinador(caracter);&#xa;periodo_vigencia_patrocinio(decimal);&#xa;valor_patrocinio_por_jogo(decimal);&#xa;valor_patrocinio_total(decimal);&#xa;&#xa;" style="align=left;spacingLeft=4;fontSize=14;verticalAlign=top;resizable=0;rotatable=0;part=1;" parent="eNTcGy9PJzzU8kZrzDq5-17" vertex="1">
          <mxGeometry y="30" width="280" height="100" as="geometry" />
        </mxCell>
        <mxCell id="eNTcGy9PJzzU8kZrzDq5-22" value="rank_copa" style="swimlane;childLayout=stackLayout;horizontal=1;startSize=30;horizontalStack=0;rounded=1;fontSize=14;fontStyle=1;strokeWidth=2;resizeParent=0;resizeLast=1;shadow=0;align=center;sketch=0;labelBackgroundColor=none;labelBorderColor=none;strokeColor=#6c8ebf;gradientColor=#ffffff;fillColor=#3399FF;" parent="1" vertex="1">
          <mxGeometry x="25" y="820" width="300" height="130" as="geometry" />
        </mxCell>
        <mxCell id="eNTcGy9PJzzU8kZrzDq5-23" value="pontuacao_selecao_total(decimal);&#xa;quant_total_jogadores_expulso(decimal);&#xa;" style="align=left;spacingLeft=4;fontSize=16;verticalAlign=middle;resizable=0;rotatable=0;part=1;" parent="eNTcGy9PJzzU8kZrzDq5-22" vertex="1">
          <mxGeometry y="30" width="300" height="100" as="geometry" />
        </mxCell>
        <mxCell id="eNTcGy9PJzzU8kZrzDq5-31" value="" style="edgeStyle=entityRelationEdgeStyle;fontSize=12;html=1;endArrow=ERmandOne;startArrow=ERmandOne;rounded=0;strokeColor=#23445D;exitX=1;exitY=0.75;exitDx=0;exitDy=0;entryX=0;entryY=0.25;entryDx=0;entryDy=0;" parent="1" source="eNTcGy9PJzzU8kZrzDq5-12" target="eNTcGy9PJzzU8kZrzDq5-16" edge="1">
          <mxGeometry width="100" height="100" relative="1" as="geometry">
            <mxPoint x="340" y="650" as="sourcePoint" />
            <mxPoint x="440" y="550" as="targetPoint" />
          </mxGeometry>
        </mxCell>
        <mxCell id="eNTcGy9PJzzU8kZrzDq5-52" value="&lt;font color=&quot;#000000&quot;&gt;acontecem&lt;/font&gt;" style="edgeLabel;html=1;align=center;verticalAlign=middle;resizable=0;points=[];fontSize=16;fontColor=#FFFFFF;" parent="eNTcGy9PJzzU8kZrzDq5-31" vertex="1" connectable="0">
          <mxGeometry x="-0.0824" y="1" relative="1" as="geometry">
            <mxPoint x="-1" as="offset" />
          </mxGeometry>
        </mxCell>
        <mxCell id="eNTcGy9PJzzU8kZrzDq5-34" value="" style="edgeStyle=entityRelationEdgeStyle;fontSize=12;html=1;endArrow=ERmandOne;rounded=0;strokeColor=#23445D;exitX=0.5;exitY=0;exitDx=0;exitDy=0;entryX=0.75;entryY=1;entryDx=0;entryDy=0;" parent="1" source="eNTcGy9PJzzU8kZrzDq5-22" target="eNTcGy9PJzzU8kZrzDq5-11" edge="1">
          <mxGeometry width="100" height="100" relative="1" as="geometry">
            <mxPoint x="175" y="790" as="sourcePoint" />
            <mxPoint x="40" y="650" as="targetPoint" />
          </mxGeometry>
        </mxCell>
        <mxCell id="eNTcGy9PJzzU8kZrzDq5-54" value="&lt;font color=&quot;#000000&quot;&gt;atualiza&lt;/font&gt;" style="edgeLabel;html=1;align=center;verticalAlign=middle;resizable=0;points=[];fontSize=16;fontColor=#FFFFFF;" parent="eNTcGy9PJzzU8kZrzDq5-34" vertex="1" connectable="0">
          <mxGeometry x="-0.0545" y="-2" relative="1" as="geometry">
            <mxPoint as="offset" />
          </mxGeometry>
        </mxCell>
        <mxCell id="eNTcGy9PJzzU8kZrzDq5-35" value="" style="edgeStyle=entityRelationEdgeStyle;fontSize=12;html=1;endArrow=ERmany;startArrow=ERmany;rounded=0;strokeColor=#23445D;entryX=0;entryY=0.25;entryDx=0;entryDy=0;exitX=1;exitY=1;exitDx=0;exitDy=0;" parent="1" source="eNTcGy9PJzzU8kZrzDq5-12" target="eNTcGy9PJzzU8kZrzDq5-17" edge="1">
          <mxGeometry width="100" height="100" relative="1" as="geometry">
            <mxPoint x="312" y="669" as="sourcePoint" />
            <mxPoint x="460" y="900" as="targetPoint" />
          </mxGeometry>
        </mxCell>
        <mxCell id="eNTcGy9PJzzU8kZrzDq5-53" value="&lt;font color=&quot;#000000&quot;&gt;financiam&lt;/font&gt;" style="edgeLabel;html=1;align=center;verticalAlign=middle;resizable=0;points=[];fontSize=16;fontColor=#FFFFFF;" parent="eNTcGy9PJzzU8kZrzDq5-35" vertex="1" connectable="0">
          <mxGeometry x="-0.1551" relative="1" as="geometry">
            <mxPoint as="offset" />
          </mxGeometry>
        </mxCell>
        <mxCell id="eNTcGy9PJzzU8kZrzDq5-46" value="" style="edgeStyle=entityRelationEdgeStyle;fontSize=12;html=1;endArrow=ERzeroToMany;startArrow=ERzeroToOne;rounded=0;strokeColor=#23445D;entryX=0;entryY=0.75;entryDx=0;entryDy=0;exitX=0;exitY=0;exitDx=0;exitDy=0;" parent="1" source="eNTcGy9PJzzU8kZrzDq5-6" target="eNTcGy9PJzzU8kZrzDq5-8" edge="1">
          <mxGeometry width="100" height="100" relative="1" as="geometry">
            <mxPoint x="370" y="420" as="sourcePoint" />
            <mxPoint x="470" y="320" as="targetPoint" />
          </mxGeometry>
        </mxCell>
        <mxCell id="eNTcGy9PJzzU8kZrzDq5-47" value="&lt;font color=&quot;#000000&quot;&gt;integram&lt;/font&gt;" style="edgeLabel;html=1;align=center;verticalAlign=middle;resizable=0;points=[];fontSize=16;fontColor=#FFFFFF;" parent="eNTcGy9PJzzU8kZrzDq5-46" vertex="1" connectable="0">
          <mxGeometry x="0.0506" y="-2" relative="1" as="geometry">
            <mxPoint as="offset" />
          </mxGeometry>
        </mxCell>
        <mxCell id="eNTcGy9PJzzU8kZrzDq5-48" value="" style="edgeStyle=entityRelationEdgeStyle;fontSize=12;html=1;endArrow=ERmany;startArrow=ERmany;rounded=0;strokeColor=#23445D;entryX=0;entryY=0.75;entryDx=0;entryDy=0;exitX=1;exitY=0.25;exitDx=0;exitDy=0;" parent="1" source="eNTcGy9PJzzU8kZrzDq5-11" target="eNTcGy9PJzzU8kZrzDq5-7" edge="1">
          <mxGeometry width="100" height="100" relative="1" as="geometry">
            <mxPoint x="370" y="470" as="sourcePoint" />
            <mxPoint x="470" y="370" as="targetPoint" />
          </mxGeometry>
        </mxCell>
        <mxCell id="eNTcGy9PJzzU8kZrzDq5-49" value="&lt;font color=&quot;#000000&quot;&gt;jogam&lt;/font&gt;" style="edgeLabel;html=1;align=center;verticalAlign=middle;resizable=0;points=[];fontSize=16;fontColor=#FFFFFF;" parent="eNTcGy9PJzzU8kZrzDq5-48" vertex="1" connectable="0">
          <mxGeometry x="-0.1331" relative="1" as="geometry">
            <mxPoint as="offset" />
          </mxGeometry>
        </mxCell>
        <mxCell id="eNTcGy9PJzzU8kZrzDq5-50" value="" style="edgeStyle=entityRelationEdgeStyle;fontSize=12;html=1;endArrow=ERzeroToMany;startArrow=ERzeroToOne;rounded=0;strokeColor=#23445D;entryX=1;entryY=0.25;entryDx=0;entryDy=0;exitX=0;exitY=0.25;exitDx=0;exitDy=0;" parent="1" source="eNTcGy9PJzzU8kZrzDq5-13" target="eNTcGy9PJzzU8kZrzDq5-12" edge="1">
          <mxGeometry width="100" height="100" relative="1" as="geometry">
            <mxPoint x="370" y="450" as="sourcePoint" />
            <mxPoint x="470" y="350" as="targetPoint" />
          </mxGeometry>
        </mxCell>
        <mxCell id="eNTcGy9PJzzU8kZrzDq5-51" value="&lt;font color=&quot;#000000&quot;&gt;participam&lt;/font&gt;" style="edgeLabel;html=1;align=center;verticalAlign=middle;resizable=0;points=[];fontSize=16;fontColor=#FFFFFF;" parent="eNTcGy9PJzzU8kZrzDq5-50" vertex="1" connectable="0">
          <mxGeometry x="0.0536" y="3" relative="1" as="geometry">
            <mxPoint x="-1" as="offset" />
          </mxGeometry>
        </mxCell>
      </root>
    </mxGraphModel>
  </diagram>
</mxfile>
